<?xml version="1.0" standalone="no"?>
<!DOCTYPE svg PUBLIC "-//W3C//DTD SVG 20010904//EN"
 "http://www.w3.org/TR/2001/REC-SVG-20010904/DTD/svg10.dtd">
<svg version="1.0" xmlns="http://www.w3.org/2000/svg"
 width="101.000000pt" height="101.000000pt" viewBox="0 0 101.000000 101.000000"
 preserveAspectRatio="xMidYMid meet">
<metadata>
Created by potrace 1.14, written by Peter Selinger 2001-2017
</metadata>
<g transform="translate(0.000000,101.000000) scale(0.100000,-0.100000)"
fill="#000000" stroke="none">
<path d="M367 993 c-16 -8 -25 -19 -21 -25 4 -7 3 -8 -4 -4 -16 10 -74 -22
-66 -36 4 -7 3 -8 -4 -4 -14 9 -115 -42 -107 -54 3 -5 0 -12 -6 -16 -8 -4 -9
-3 -5 4 10 16 1 15 -35 -3 -16 -9 -27 -20 -24 -25 3 -5 0 -12 -6 -16 -8 -4 -9
-3 -5 4 10 16 1 15 -35 -3 -16 -9 -27 -20 -24 -24 2 -5 -2 -14 -10 -21 -22
-19 -22 -511 0 -530 8 -7 12 -16 10 -21 -3 -4 8 -15 24 -24 36 -18 45 -19 35
-3 -4 7 -3 8 5 4 6 -4 9 -11 6 -16 -3 -5 8 -16 24 -25 36 -18 45 -19 35 -3 -4
7 -3 8 5 4 6 -4 9 -11 6 -16 -8 -12 93 -63 107 -54 7 4 8 3 4 -4 -8 -14 50
-46 66 -36 7 4 8 3 4 -4 -11 -19 46 -40 99 -38 56 3 119 31 109 48 -4 7 -3 8
4 4 13 -8 75 21 68 32 -2 4 3 8 12 8 25 0 223 114 217 124 -3 5 0 12 6 16 8 4
9 3 5 -4 -4 -7 -2 -12 3 -12 8 0 11 91 11 285 0 194 -3 285 -11 285 -5 0 -7
-5 -3 -12 4 -7 3 -8 -5 -4 -6 4 -9 11 -6 16 6 10 -192 124 -217 124 -9 0 -14
4 -12 8 7 11 -55 40 -68 32 -7 -4 -8 -3 -4 4 10 17 -63 49 -114 49 -25 1 -58
-6 -73 -14z m33 2 c0 -2 -10 -9 -22 -15 -22 -11 -22 -10 -4 4 21 17 26 19 26
11z m140 -31 c0 -2 -9 0 -20 6 -11 6 -20 13 -20 16 0 2 9 0 20 -6 11 -6 20
-13 20 -16z m-75 -73 c-3 -5 67 -50 154 -101 l160 -91 0 -194 0 -194 -160 -91
c-87 -51 -156 -96 -153 -101 3 -6 -11 -2 -33 7 -21 9 -46 17 -55 18 -9 0 -14
4 -12 8 3 4 -4 12 -15 17 -26 14 -34 14 -25 -1 4 -7 3 -8 -5 -4 -6 4 -9 11 -6
16 3 5 -8 16 -24 25 -36 18 -45 19 -35 3 4 -7 3 -8 -5 -4 -6 4 -9 11 -6 16 3
5 -8 16 -24 25 -36 18 -45 19 -35 3 4 -7 3 -8 -5 -4 -6 4 -9 11 -6 16 3 5 -8
16 -24 25 -36 18 -45 19 -35 3 4 -7 3 -8 -5 -4 -6 4 -9 12 -6 17 4 5 2 9 -4 9
-6 0 -10 70 -10 195 0 125 4 195 10 195 6 0 8 4 4 9 -3 5 0 13 6 17 8 4 9 3 5
-4 -10 -16 -1 -15 35 3 16 9 27 20 24 25 -3 5 0 12 6 16 8 4 9 3 5 -4 -10 -16
-1 -15 35 3 16 9 27 20 24 25 -3 5 0 12 6 16 8 4 9 3 5 -4 -10 -16 -1 -15 35
3 16 9 27 20 24 25 -3 5 0 12 6 16 8 4 9 3 5 -4 -9 -15 -1 -15 25 -1 11 5 17
14 14 19 -4 6 1 7 11 3 11 -4 15 -3 10 5 -3 6 -1 14 5 18 8 4 9 3 5 -4 -9 -15
-5 -15 35 3 41 17 42 17 34 6z m55 -27 c0 -2 -9 0 -20 6 -11 6 -20 13 -20 16
0 2 9 0 20 -6 11 -6 20 -13 20 -16z m230 -20 c0 -2 -9 0 -20 6 -11 6 -20 13
-20 16 0 2 9 0 20 -6 11 -6 20 -13 20 -16z m-160 -20 c0 -2 -9 0 -20 6 -11 6
-20 13 -20 16 0 2 9 0 20 -6 11 -6 20 -13 20 -16z m230 -20 c0 -2 -9 0 -20 6
-11 6 -20 13 -20 16 0 2 9 0 20 -6 11 -6 20 -13 20 -16z m-160 -20 c0 -2 -9 0
-20 6 -11 6 -20 13 -20 16 0 2 9 0 20 -6 11 -6 20 -13 20 -16z m70 -40 c0 -2
-9 0 -20 6 -11 6 -20 13 -20 16 0 2 9 0 20 -6 11 -6 20 -13 20 -16z m70 -239
c0 -202 0 -204 -22 -215 -21 -10 -21 -10 -5 3 15 13 17 36 17 212 0 176 -2
199 -17 212 -16 13 -16 13 5 3 22 -11 22 -13 22 -215z m-70 -240 c0 -2 -10 -9
-22 -15 -22 -11 -22 -10 -4 4 21 17 26 19 26 11z m-70 -40 c0 -2 -10 -9 -22
-15 -22 -11 -22 -10 -4 4 21 17 26 19 26 11z m160 -20 c0 -2 -10 -9 -22 -15
-22 -11 -22 -10 -4 4 21 17 26 19 26 11z m-230 -20 c0 -2 -10 -9 -22 -15 -22
-11 -22 -10 -4 4 21 17 26 19 26 11z m160 -20 c0 -2 -10 -9 -22 -15 -22 -11
-22 -10 -4 4 21 17 26 19 26 11z m-230 -20 c0 -2 -10 -9 -22 -15 -22 -11 -22
-10 -4 4 21 17 26 19 26 11z m20 -100 c0 -2 -10 -9 -22 -15 -22 -11 -22 -10
-4 4 21 17 26 19 26 11z m-140 -31 c0 -2 -9 0 -20 6 -11 6 -20 13 -20 16 0 2
9 0 20 -6 11 -6 20 -13 20 -16z"/>
<path d="M476 688 c-24 -22 -152 -255 -145 -263 2 -2 33 53 69 122 67 129 100
168 123 143 8 -9 9 -11 0 -6 -25 14 -46 -12 -119 -151 -57 -108 -75 -151 -72
-173 3 -16 0 -26 -5 -23 -5 3 -7 23 -4 43 4 35 1 42 -42 81 -46 44 -46 44 -9
4 30 -33 36 -47 35 -79 -1 -31 5 -43 27 -62 33 -29 36 -29 70 -3 23 18 147
245 145 266 0 5 -29 -49 -64 -119 -67 -132 -104 -174 -128 -148 -9 10 -9 11 0
6 28 -15 56 21 124 156 53 107 70 149 66 171 -4 27 -3 28 10 12 7 -11 13 -14
13 -8 0 12 -47 53 -61 53 -4 0 -19 -10 -33 -22z"/>
<path d="M102 505 c0 -188 5 -247 9 -102 l2 78 53 -52 c69 -69 70 -79 2 -14
l-53 50 50 -53 c28 -30 58 -58 68 -63 30 -17 54 -2 62 38 6 32 3 40 -34 77
l-41 42 41 40 c37 37 40 44 34 77 -8 40 -32 55 -62 38 -10 -5 -40 -33 -68 -63
l-50 -53 55 50 55 50 -55 -58 c-30 -31 -55 -57 -56 -57 0 0 -2 35 -3 77 -4
145 -9 85 -9 -102z m171 148 c3 -5 -5 -8 -18 -8 -13 0 -21 3 -18 8 2 4 10 7
18 7 8 0 16 -3 18 -7z m0 -295 c-2 -5 -10 -8 -18 -8 -8 0 -16 3 -18 8 -3 4 5
7 18 7 13 0 21 -3 18 -7z"/>
<path d="M603 663 c-7 -2 -13 -10 -13 -16 0 -8 4 -7 12 1 7 7 19 12 28 11 13
0 13 -1 0 -6 -24 -9 -50 -35 -50 -50 0 -7 18 -33 40 -57 l40 -43 -31 -29 c-17
-16 -37 -42 -45 -59 -8 -19 -13 -23 -14 -13 0 10 16 37 36 60 l37 43 -42 -43
c-23 -23 -41 -50 -39 -58 2 -8 6 -14 9 -12 4 2 15 -4 25 -13 11 -9 26 -19 34
-22 13 -5 13 -6 -1 -6 -8 -1 -20 4 -27 11 -8 8 -12 8 -12 1 0 -11 22 -23 42
-23 5 0 38 27 72 60 59 56 63 63 63 105 0 42 -4 49 -63 105 -60 57 -73 65
-101 53z m107 -68 c30 -30 52 -55 49 -55 -2 0 -29 25 -59 55 -30 30 -52 55
-49 55 2 0 29 -25 59 -55z m50 -128 c0 -1 -26 -27 -57 -57 l-58 -55 55 58 c50
53 60 62 60 54z"/>
<path d="M306 617 c6 -24 0 -36 -37 -75 l-44 -47 48 45 c48 45 55 63 37 90 -8
11 -9 8 -4 -13z"/>
<path d="M560 620 c-10 -18 -4 -28 41 -73 l52 -52 -42 48 c-34 38 -41 54 -37
73 8 29 1 31 -14 4z"/>
<path d="M0 779 c0 -5 5 -7 10 -4 5 3 10 8 10 11 0 2 -4 4 -10 4 -5 0 -10 -5
-10 -11z"/>
<path d="M894 505 c0 -148 2 -211 3 -138 2 72 2 194 0 270 -1 76 -3 17 -3
-132z"/>
<path d="M0 230 c0 -5 5 -10 11 -10 5 0 7 5 4 10 -3 6 -8 10 -11 10 -2 0 -4
-4 -4 -10z"/>
</g>
</svg>
